<svg width="150" height="150" viewBox="0 0 150 150" fill="none" xmlns="http://www.w3.org/2000/svg">
<circle cx="75" cy="75" r="75" fill="#170351"/>
<circle cx="75" cy="75" r="75" fill="url(#paint0_linear_5_75)" fill-opacity="0.35"/>
<path fill-rule="evenodd" clip-rule="evenodd" d="M75 150C116.421 150 150 116.421 150 75C150 33.5786 116.421 0 75 0C41.4986 0 13.1275 21.9654 3.50293 52.2801L20.5 49L11.5542 115.014C24.8414 136.038 48.2902 150 75 150Z" fill="#9E0558"/>
<path fill-rule="evenodd" clip-rule="evenodd" d="M75 150C116.421 150 150 116.421 150 75C150 33.5786 116.421 0 75 0C41.4986 0 13.1275 21.9654 3.50293 52.2801L20.5 49L11.5542 115.014C24.8414 136.038 48.2902 150 75 150Z" fill="url(#paint1_linear_5_75)" fill-opacity="0.35"/>
<path fill-rule="evenodd" clip-rule="evenodd" d="M66.2416 39.5534L147.5 57.5L146.295 51.653C148.7 59.0009 150 66.8486 150 75C150 116.421 116.421 150 75 150C44.4808 150 18.2192 131.771 6.50928 105.607L11.5 114.5L20.5 49L66.2416 39.5534ZM58.5 2L73.4871 0.0149536C66.665 0.149939 60.0663 1.19582 53.8075 3.03601L58.5 2ZM10.4248 36.8318L10.0978 37.731L9.97632 37.5993C10.1243 37.3425 10.2738 37.0867 10.4248 36.8318Z" fill="#0072DB"/>
<path fill-rule="evenodd" clip-rule="evenodd" d="M66.2416 39.5534L147.5 57.5L146.295 51.653C148.7 59.0009 150 66.8486 150 75C150 116.421 116.421 150 75 150C44.4808 150 18.2192 131.771 6.50928 105.607L11.5 114.5L20.5 49L66.2416 39.5534ZM58.5 2L73.4871 0.0149536C66.665 0.149939 60.0663 1.19582 53.8075 3.03601L58.5 2ZM10.4248 36.8318L10.0978 37.731L9.97632 37.5993C10.1243 37.3425 10.2738 37.0867 10.4248 36.8318Z" fill="url(#paint2_linear_5_75)" fill-opacity="0.35"/>
<path fill-rule="evenodd" clip-rule="evenodd" d="M147.998 57.7118C140.191 24.6247 110.471 0 75 0C74.3318 0 73.6656 0.00873874 73.0016 0.0261082L66.5 39.5L147.998 57.7118Z" fill="#170351"/>
<path fill-rule="evenodd" clip-rule="evenodd" d="M147.998 57.7118C140.191 24.6247 110.471 0 75 0C74.3318 0 73.6656 0.00873874 73.0016 0.0261082L66.5 39.5L147.998 57.7118Z" fill="url(#paint3_linear_5_75)" fill-opacity="0.35"/>
<path d="M11.5 115L66.5 39.5L20.5 49L11.5 115Z" fill="#170351"/>
<path d="M20.7879 123.2L19.385 103L28.059 125.962L20.7879 123.2Z" fill="#3A0173"/>
<path d="M93.8179 50.5307L146.451 85.3441L114.355 15.4668L93.8179 50.5307Z" fill="#721BCA"/>
<path d="M97.6972 118.03L110.932 139.526L131.094 106.633L97.6972 118.03Z" fill="#48058B"/>
<path d="M62.9204 61.8984H68.1035V89.5864C68.1035 93.3283 66.9756 96.2555 64.7197 98.3682C62.4818 100.481 59.4919 101.537 55.75 101.537C51.8649 101.537 48.8392 100.543 46.6729 98.5562C44.5065 96.5688 43.4233 93.7848 43.4233 90.2041H48.5796C48.5796 92.4421 49.1883 94.1877 50.4058 95.4409C51.6411 96.6942 53.4225 97.3208 55.75 97.3208C57.8805 97.3208 59.5993 96.6494 60.9062 95.3066C62.2311 93.9639 62.9025 92.084 62.9204 89.667V61.8984Z" fill="white"/>
<path d="M107.59 101H102.407L82.7217 70.8682V101H77.5386V61.8984H82.7217L102.46 92.1646V61.8984H107.59V101Z" fill="#FFA800"/>
<rect x="79" y="103" width="21" height="2" rx="1" fill="white"/>
<path fill-rule="evenodd" clip-rule="evenodd" d="M104.5 105L100 104L104.5 103L109 104L104.5 105Z" fill="black"/>
<defs>
<linearGradient id="paint0_linear_5_75" x1="75" y1="129.5" x2="75" y2="96.5" gradientUnits="userSpaceOnUse">
<stop/>
<stop offset="1" stop-opacity="0"/>
</linearGradient>
<linearGradient id="paint1_linear_5_75" x1="75" y1="129.5" x2="75" y2="96.5" gradientUnits="userSpaceOnUse">
<stop/>
<stop offset="1" stop-opacity="0"/>
</linearGradient>
<linearGradient id="paint2_linear_5_75" x1="78" y1="134" x2="78" y2="97.5" gradientUnits="userSpaceOnUse">
<stop/>
<stop offset="1" stop-opacity="0"/>
</linearGradient>
<linearGradient id="paint3_linear_5_75" x1="75" y1="129.5" x2="75" y2="96.5" gradientUnits="userSpaceOnUse">
<stop/>
<stop offset="1" stop-opacity="0"/>
</linearGradient>
</defs>
</svg>
